<?xml version="1.0" encoding="utf-8"?>
<svg viewBox="-14.877 73.417 480.8 95.007" width="480.8" height="95.007" xmlns="http://www.w3.org/2000/svg">
  <path class="st0" d="M140.3,92.8L116,37c-0.2-0.5-0.2-1,0.1-1.5l22.1-33.2c0.4-0.7,0.3-1.6-0.4-2c-0.2-0.2-0.5-0.2-0.8-0.2h-21.7 c-0.5,0-0.9,0.2-1.2,0.6l-19,28.4c-0.5,0.7-1.4,0.8-2,0.4c-0.4-0.3-0.6-0.7-0.6-1.2V1.5c0-0.8-0.6-1.4-1.4-1.4c0,0,0,0,0,0h-18 c-0.8,0-1.4,0.7-1.4,1.4V23c-1.9-4.2-4.4-8-7.6-11.2C60.4,7.9,55.7,4.9,50.5,3c-5.5-2-11.3-3-17.1-2.9H0.8c-0.8,0-1.4,0.6-1.4,1.4 v51.7c0,0.3,0.1,0.6,0.3,0.8l9,12.9c0.5,0.6,1.3,0.8,2,0.4c0.1-0.1,0.3-0.2,0.4-0.4L20,54c0.2-0.2,0.3-0.5,0.3-0.8V19 c0-0.8,0.6-1.4,1.4-1.4c0,0,0,0,0,0h6.5c4.4-0.1,8.8,0.6,12.9,2.2c3.3,1.3,6.2,3.5,8.4,6.3c2.2,2.9,3.8,6.3,4.6,9.9 c1,4.2,1.4,8.6,1.4,13c0.1,4.5-0.6,9-2,13.3c-1.1,3.3-2.9,6.3-5.3,8.8c-2.1,2.2-4.7,3.9-7.6,4.9c-2.8,1-5.8,1.5-8.8,1.5h-7.9 c-0.5,0-0.9,0.2-1.1,0.6l-9.7,15c-0.3,0.6-0.1,1.4,0.5,1.7c0.2,0.1,0.4,0.2,0.6,0.2h19c6.5,0.1,13-1.1,18.9-3.6 c5.2-2.3,9.7-5.7,13.4-10c2.5-2.9,4.5-6.2,6-9.7v22c0,0.8,0.6,1.4,1.4,1.4h18c0.8,0,1.4-0.6,1.4-1.4V71.2c0-0.3,0.1-0.6,0.3-0.8 l7.8-11.4c0.4-0.7,1.3-0.8,2-0.4c0.2,0.1,0.4,0.3,0.5,0.5l14.3,35c0.2,0.5,0.7,0.8,1.3,0.8h20.3c0.8,0,1.4-0.6,1.4-1.4 C140.5,93.3,140.5,93.1,140.3,92.8" transform="matrix(1, 0, 0, 1, -14.277003, 73.323914)" style="fill: rgb(220, 13, 19);"/>
  <polygon class="st1" points="182.8,94.9 182.8,16.3 172.9,16.3 172.9,53.5 159.3,53.5 159.3,16.3 149.4,16.3 149.4,94.9 159.3,94.9 &#10;&#9;159.3,62.4 172.9,62.4 172.9,94.9 " transform="matrix(1, 0, 0, 1, -14.277003, 73.323914)" style="fill: rgb(61, 61, 61);"/>
  <path class="st1" d="M224.4,94.9V29.5c0-8.9-4-13.2-12.3-13.2h-7.9c-8.3,0-12.3,4.3-12.3,13.2v65.4h9.9V62.4h12.7v32.5H224.4z M201.8,53.5V30.2c0-2.7,2.2-4.9,4.9-4.9h2.9c2.7,0,4.9,2.2,4.9,4.9v23.3H201.8z" transform="matrix(1, 0, 0, 1, -14.277003, 73.323914)" style="fill: rgb(61, 61, 61);"/>
  <path class="st1" d="M250.5,62.6l6.9,32.3h9.3l-7.3-33.4l0.3-0.1c4-1.8,6.1-6.1,6.1-12.8V29.5c0-8.9-3.8-13.2-11.8-13.2h-20.3v78.6 h9.9V62.4h6.9L250.5,62.6z M243.5,25.2h7.2c3.3,0,5,2,5,6V48c0,4-1.7,5.6-5,5.6h-7.2L243.5,25.2z" transform="matrix(1, 0, 0, 1, -14.277003, 73.323914)" style="fill: rgb(61, 61, 61);"/>
  <path class="st1" d="M306.8,83.4V31.2c0-10-4.7-14.8-14.5-14.8h-18v78.6h20.2C302.8,94.9,306.8,90.9,306.8,83.4 M284.2,85.6V25.2 h7.7c3.3,0,5,2,5,6v50.5c0,1.8-0.8,3.8-4.5,3.8L284.2,85.6z" transform="matrix(1, 0, 0, 1, -14.277003, 73.323914)" style="fill: rgb(61, 61, 61);"/>
  <polygon class="st1" points="358.9,16.3 351.2,77.6 343.4,16.3 335.8,16.3 328,77.6 320.3,16.3 310.5,16.3 322,94.9 332.9,94.9 &#10;&#9;339.5,46.9 346.3,94.9 357.1,94.9 368.7,16.3 " transform="matrix(1, 0, 0, 1, -14.277003, 73.323914)" style="fill: rgb(61, 61, 61);"/>
  <path class="st1" d="M404.9,94.9V29.5c0-8.9-4-13.2-12.3-13.2h-7.9c-8.3,0-12.3,4.3-12.3,13.2v65.4h9.9V62.4H395v32.5H404.9z M382.3,53.5V30.2c0-2.7,2.2-4.9,4.9-4.9h2.9c2.7,0,4.9,2.2,4.9,4.9v23.3H382.3z" transform="matrix(1, 0, 0, 1, -14.277003, 73.323914)" style="fill: rgb(61, 61, 61);"/>
  <polygon class="st1" points="480.2,25.2 480.2,16.3 454.7,16.3 454.7,94.9 480.2,94.9 480.2,85.6 464.6,85.6 464.4,62.4 478.3,62.4 &#10;&#9;478.3,53.5 464.4,53.5 464.6,25.2 " transform="matrix(1, 0, 0, 1, -14.277003, 73.323914)" style="fill: rgb(61, 61, 61);"/>
  <path class="st1" d="M430.9,62.6l6.9,32.3h9.3l-7.3-33.4l0.3-0.1c4-1.8,6.1-6.1,6.1-12.8V29.5c0-8.9-3.9-13.2-11.8-13.2H414v78.6 h9.9V62.4h6.9L430.9,62.6z M423.9,25.2h7.2c3.4,0,5,2,5,6V48c0,4-1.7,5.6-5,5.6h-7.2V25.2z" transform="matrix(1, 0, 0, 1, -14.277003, 73.323914)" style="fill: rgb(61, 61, 61);"/>
</svg>